<?xml version="1.0" standalone="no"?>
<!DOCTYPE svg PUBLIC "-//W3C//DTD SVG 20010904//EN"
 "http://www.w3.org/TR/2001/REC-SVG-20010904/DTD/svg10.dtd">
<svg version="1.0" xmlns="http://www.w3.org/2000/svg"
 width="776.000000pt" height="776.000000pt" viewBox="0 0 776.000000 776.000000"
 preserveAspectRatio="xMidYMid meet">
<metadata>
Created by potrace 1.14, written by Peter Selinger 2001-2017
</metadata>
<g transform="translate(0.000000,776.000000) scale(0.100000,-0.100000)"
fill="#000000" stroke="none">
<path d="M3866 7643 c-4 -65 -20 -293 -36 -508 -24 -329 -29 -473 -34 -920 -8
-727 -26 -1790 -34 -2019 l-7 -188 -45 54 c-304 369 -672 802 -853 1006 l-109
123 -99 -3 c-55 -2 -99 -4 -99 -5 0 -2 262 -344 537 -700 34 -46 63 -85 63
-88 0 -2 -133 -6 -295 -7 l-295 -3 341 -370 c188 -203 410 -444 494 -535 83
-91 201 -220 261 -287 60 -66 112 -122 117 -122 4 -1 7 45 7 102 0 56 7 219
15 362 8 143 24 467 35 720 11 253 25 532 30 620 5 88 10 180 11 205 3 107 27
-199 38 -480 6 -168 16 -413 21 -545 12 -286 50 -979 55 -983 3 -3 452 484
800 868 82 91 210 229 283 308 l134 142 -302 0 -301 0 57 76 c86 117 414 540
512 661 23 29 42 55 42 58 0 7 -185 6 -204 -1 -25 -10 -381 -420 -790 -912
-121 -144 -220 -261 -221 -260 -3 3 -21 1128 -35 2138 -9 621 -13 737 -40
1090 -16 217 -30 418 -30 445 0 28 -4 56 -9 63 -5 8 -11 -34 -15 -105z"/>
<path d="M3127 6295 c-16 -382 -19 -817 -8 -1035 21 -383 38 -306 47 219 6
340 -8 886 -25 949 -5 16 -10 -37 -14 -133z"/>
<path d="M4604 6285 c-12 -219 -12 -1109 0 -1200 9 -69 9 -69 17 -30 28 157
37 629 18 1050 -15 351 -23 392 -35 180z"/>
<path d="M2420 4161 c-16 -30 -12 -49 11 -62 46 -24 93 33 57 69 -18 18 -56
14 -68 -7z"/>
<path d="M5272 4168 c-39 -39 17 -100 58 -63 25 22 25 37 2 58 -22 20 -43 22
-60 5z"/>
<path d="M2720 3925 c-10 -12 -10 -18 0 -30 20 -25 55 -15 55 15 0 30 -35 40
-55 15z"/>
<path d="M4984 3925 c-10 -25 4 -45 30 -45 27 0 42 26 25 46 -15 19 -48 18
-55 -1z"/>
<path d="M2665 3631 c-3 -2 33 -45 78 -95 101 -110 514 -579 578 -656 26 -30
69 -95 96 -145 75 -136 286 -530 326 -611 l36 -71 16 -344 c8 -189 24 -537 35
-774 11 -236 24 -525 30 -640 5 -116 10 -230 10 -254 0 -24 3 -42 6 -38 8 8
19 195 49 877 14 316 32 709 39 872 l14 298 87 167 c230 444 326 610 403 700
76 89 516 591 584 667 20 22 37 44 38 49 0 4 -58 7 -129 7 l-129 0 -175 -192
c-96 -106 -231 -258 -300 -337 -137 -157 -158 -190 -364 -598 -60 -117 -110
-213 -113 -213 -3 0 -30 48 -60 107 -137 267 -272 518 -299 556 -31 44 -140
167 -430 485 l-176 193 -123 -3 c-68 -1 -125 -5 -127 -7z"/>
<path d="M3860 3165 c-10 -12 -10 -18 0 -30 25 -30 57 -12 45 25 -8 24 -28 26
-45 5z"/>
<path d="M4607 2660 c-17 -283 -20 -677 -7 -988 8 -192 16 -317 21 -304 16 43
28 728 18 1046 -11 346 -22 428 -32 246z"/>
<path d="M3130 2720 c0 -25 -5 -169 -11 -320 -8 -203 -7 -373 2 -650 6 -206
13 -377 15 -379 2 -2 6 -2 8 0 2 2 10 169 16 370 10 288 10 431 1 679 -7 173
-16 321 -21 330 -7 10 -10 2 -10 -30z"/>
</g>
</svg>
